<?xml version="1.0" encoding="utf-8"?>
<!-- Generator: Adobe Illustrator 16.0.0, SVG Export Plug-In . SVG Version: 6.00 Build 0)  -->
<!DOCTYPE svg PUBLIC "-//W3C//DTD SVG 1.1//EN" "http://www.w3.org/Graphics/SVG/1.1/DTD/svg11.dtd">
<svg version="1.1" id="Layer_1" xmlns="http://www.w3.org/2000/svg" xmlns:xlink="http://www.w3.org/1999/xlink" x="0px" y="0px"
	 width="595.281px" height="841.891px" viewBox="0 0 595.281 841.891" enable-background="new 0 0 595.281 841.891"
	 xml:space="preserve">
<g>
	<path fill="none" stroke="#78787B" stroke-width="8" stroke-miterlimit="10" d="M268.836,603.37H96.013V430.547h172.823V603.37z"/>
	<path fill="none" stroke="#78787B" stroke-width="8" stroke-miterlimit="10" d="M499.267,344.135H326.445v-153.62h172.822V344.135z
		"/>
	<path fill="none" stroke="#78787B" stroke-width="8" stroke-miterlimit="10" d="M460.863,603.37H288.039V449.749h172.824V603.37z"
		/>
	<path fill="none" stroke="#78787B" stroke-width="9" stroke-miterlimit="10" d="M307.242,344.135H153.621V152.109h153.621V344.135z
		"/>
</g>
<g>
	<path fill="none" stroke="#78787B" stroke-width="8" stroke-miterlimit="10" d="M576.078,660.977V123.305H518.47v220.829H76.811
		V123.305H19.203v537.672H0v57.608h96.013v-57.608H76.811v-38.405h441.66v38.405h-19.203v57.608h96.014v-57.608H576.078z
		 M518.47,584.168v19.202H76.811V363.338h441.66v201.627 M537.673,660.977"/>
</g>
<g id="Слой_2">
	<g id="Layer_1_1_">
		<path fill="#DA262E" d="M273.657,242.705c0.018-0.471-0.321-0.879-0.787-0.948c-3.245-0.42-6.139-2.255-7.904-5.01
			c-0.278-0.356-0.452-0.782-0.505-1.231c-1.23-4.37,0.825-8.691,1.602-10.181c0.271-0.407,0.162-0.958-0.244-1.229
			c-0.001,0-0.002-0.001-0.003-0.002l-6.205-5.946c-0.388-0.337-0.965-0.337-1.354,0c-5.011,3.693-11.375,1.341-11.375,1.341
			c-4.346-1.76-4.802-6.155-5.38-7.866c-0.156-0.42-0.529-0.722-0.973-0.788l-8.618-0.074c-0.471-0.018-0.879,0.322-0.947,0.788
			c-0.572,3.531-2.714,6.615-5.823,8.383c-4.358,1.847-8.617-0.443-10.156-1.231c-0.397-0.22-0.892-0.166-1.231,0.136l-6.156,6.082
			c-0.341,0.361-0.377,0.914-0.086,1.316c2.144,3.106,2.57,7.086,1.132,10.575c-2.179,4.26-6.992,5.651-8.617,6.155
			c-0.419,0.182-0.703,0.58-0.739,1.034l0.197,8.618c-0.018,0.471,0.322,0.879,0.788,0.948c3.453,0.562,6.483,2.615,8.285,5.613
			l0.32,0.764c1.231,4.37-0.825,8.691-1.601,10.181c-0.272,0.407-0.163,0.958,0.244,1.23c0,0,0.001,0,0.002,0.001l6.155,6.008
			c0.361,0.342,0.915,0.378,1.317,0.086c2.608-2.051,6.037-2.736,9.233-1.847c0.273,0.067,0.534,0.176,0.775,0.32
			c4.051,2.277,6.155,7.178,6.55,8.79c0.165,0.402,0.529,0.688,0.96,0.751l8.618-0.197c0.47,0.019,0.879-0.321,0.947-0.788
			c0.637-3.593,2.913-6.684,6.156-8.358l0.541-0.234c4.432-1.366,8.913,0.727,10.514,1.465c0.407,0.272,0.957,0.163,1.229-0.244
			c0.001,0,0.001-0.001,0.001-0.002l5.971-6.254c0.342-0.361,0.379-0.914,0.087-1.317c-2.011-2.952-2.628-6.637-1.687-10.082
			c0.068-0.389,0.22-0.759,0.443-1.084c1.801-2.885,4.573-5.032,7.816-6.057c0.403-0.165,0.688-0.53,0.752-0.96L273.657,242.705z
			 M236.22,270.294c-12.237-0.212-21.984-10.305-21.771-22.541c0.212-12.236,10.304-21.983,22.541-21.771
			c12.229,0.213,21.974,10.293,21.771,22.522c-0.202,12.237-10.286,21.992-22.522,21.791
			C236.232,270.295,236.226,270.295,236.22,270.294z"/>
		<path fill="#DA262E" d="M242.72,247.777c-0.271,0.55-0.633,1.05-1.071,1.478c-1.187,1.219-2.817,1.903-4.519,1.896l-3.964-0.062
			l0.197-12.003l3.692,0.062c1.696-0.115,3.372,0.417,4.691,1.49c0.712,0.66,1.213,1.517,1.44,2.462l8.617,0.147
			c-0.109-2.881-1.321-5.608-3.385-7.62c-2.352-2.277-5.86-3.263-10.489-3.349l-13.628-0.234h-0.259l-0.505,29.547
			c2.683,2.229,5.898,3.728,9.332,4.346l0.135-8.113l5.023,0.086c3.642,0.116,7.182-1.211,9.849-3.693
			c1.872-1.684,3.164-3.915,3.693-6.377L242.72,247.777z"/>
	</g>
</g>
<g id="Слой_2_1_">
	<g id="Layer_1_2_">
		<path fill="#DA262E" d="M226.354,511.193c0.019-0.5-0.342-0.935-0.838-1.008c-3.453-0.448-6.532-2.4-8.411-5.332
			c-0.296-0.38-0.481-0.833-0.537-1.311c-1.31-4.65,0.878-9.249,1.703-10.834c0.29-0.434,0.173-1.02-0.26-1.309
			c-0.001,0-0.001-0.001-0.002-0.002l-6.604-6.328c-0.413-0.357-1.027-0.357-1.441,0c-5.331,3.931-12.104,1.428-12.104,1.428
			c-4.625-1.873-5.109-6.55-5.726-8.371c-0.166-0.447-0.563-0.768-1.034-0.838l-9.171-0.078c-0.501-0.02-0.936,0.342-1.009,0.838
			c-0.608,3.758-2.888,7.039-6.197,8.922c-4.638,1.965-9.17-0.473-10.808-1.311c-0.423-0.234-0.948-0.177-1.31,0.145l-6.551,6.472
			c-0.363,0.385-0.402,0.974-0.091,1.401c2.282,3.306,2.735,7.541,1.205,11.254c-2.319,4.533-7.441,6.014-9.17,6.551
			c-0.446,0.192-0.748,0.616-0.786,1.1l0.21,9.172c-0.019,0.5,0.342,0.936,0.838,1.009c3.674,0.598,6.899,2.782,8.817,5.974
			l0.34,0.813c1.31,4.65-0.877,9.249-1.703,10.834c-0.29,0.433-0.173,1.02,0.26,1.31c0.001,0,0.001,0,0.002,0.001l6.55,6.394
			c0.385,0.363,0.974,0.402,1.402,0.092c2.775-2.183,6.425-2.913,9.825-1.966c0.291,0.072,0.569,0.187,0.826,0.341
			c4.31,2.424,6.55,7.638,6.97,9.354c0.175,0.428,0.563,0.731,1.021,0.799l9.171-0.21c0.501,0.02,0.936-0.342,1.009-0.838
			c0.677-3.824,3.101-7.113,6.551-8.896l0.576-0.249c4.716-1.454,9.485,0.772,11.188,1.559c0.434,0.29,1.02,0.173,1.309-0.26
			c0.001-0.001,0.001-0.001,0.002-0.002l6.354-6.655c0.363-0.385,0.402-0.974,0.092-1.402c-2.14-3.142-2.796-7.063-1.794-10.729
			c0.072-0.413,0.233-0.807,0.471-1.152c1.918-3.07,4.868-5.355,8.319-6.446c0.429-0.176,0.732-0.563,0.8-1.021L226.354,511.193z
			 M186.514,540.552c-13.021-0.226-23.395-10.965-23.168-23.987c0.226-13.021,10.965-23.395,23.988-23.169
			c13.014,0.227,23.384,10.954,23.169,23.968c-0.215,13.022-10.946,23.404-23.969,23.189
			C186.528,540.553,186.521,540.553,186.514,540.552z"/>
		<path fill="#DA262E" d="M193.431,516.592c-0.288,0.585-0.673,1.116-1.14,1.572c-1.263,1.297-2.998,2.025-4.808,2.018l-4.219-0.065
			l0.21-12.773l3.93,0.064c1.805-0.122,3.589,0.444,4.992,1.586c0.758,0.703,1.291,1.614,1.532,2.62l9.171,0.157
			c-0.116-3.065-1.406-5.969-3.603-8.109c-2.503-2.424-6.236-3.472-11.162-3.563l-14.503-0.249h-0.275l-0.537,31.442
			c2.855,2.373,6.277,3.967,9.931,4.625l0.145-8.634l5.345,0.092c3.876,0.123,7.643-1.289,10.481-3.931
			c1.992-1.791,3.367-4.167,3.93-6.786L193.431,516.592z"/>
	</g>
</g>
<g id="Слой_2_2_">
	<g id="Layer_1_3_">
		<path fill="#DA262E" d="M407.104,521.534c0.017-0.437-0.298-0.815-0.73-0.879c-3.01-0.391-5.693-2.093-7.331-4.647
			c-0.259-0.331-0.42-0.727-0.469-1.143c-1.142-4.054,0.766-8.063,1.485-9.444c0.252-0.377,0.15-0.888-0.227-1.14
			c-0.001-0.001-0.001-0.002-0.002-0.002l-5.756-5.516c-0.36-0.313-0.896-0.313-1.257,0c-4.647,3.426-10.551,1.244-10.551,1.244
			c-4.031-1.633-4.454-5.709-4.991-7.297c-0.145-0.39-0.49-0.67-0.901-0.73l-7.994-0.068c-0.437-0.018-0.815,0.298-0.88,0.73
			c-0.53,3.275-2.517,6.136-5.401,7.776c-4.043,1.713-7.993-0.411-9.421-1.142c-0.369-0.205-0.827-0.154-1.143,0.125l-5.71,5.643
			c-0.316,0.335-0.35,0.848-0.08,1.221c1.989,2.882,2.385,6.573,1.051,9.811c-2.021,3.951-6.486,5.241-7.993,5.709
			c-0.39,0.169-0.652,0.538-0.686,0.96l0.183,7.994c-0.016,0.437,0.299,0.815,0.73,0.879c3.203,0.521,6.015,2.426,7.686,5.207
			l0.297,0.708c1.143,4.055-0.765,8.063-1.484,9.444c-0.252,0.378-0.15,0.889,0.227,1.142c0.001,0,0.002,0,0.002,0.001l5.71,5.572
			c0.335,0.317,0.849,0.351,1.222,0.08c2.42-1.902,5.601-2.538,8.565-1.713c0.253,0.063,0.496,0.162,0.719,0.297
			c3.758,2.112,5.71,6.658,6.076,8.154c0.152,0.373,0.491,0.638,0.891,0.696l7.994-0.183c0.436,0.017,0.815-0.299,0.879-0.731
			c0.59-3.333,2.702-6.2,5.71-7.754l0.503-0.217c4.11-1.268,8.268,0.674,9.752,1.358c0.378,0.253,0.888,0.151,1.141-0.226
			c0.001-0.001,0.001-0.001,0.001-0.002l5.539-5.801c0.316-0.336,0.351-0.85,0.08-1.223c-1.865-2.738-2.438-6.156-1.564-9.353
			c0.063-0.36,0.203-0.703,0.411-1.005c1.671-2.677,4.242-4.668,7.251-5.619c0.374-0.153,0.638-0.491,0.697-0.891L407.104,521.534z
			 M372.377,547.126c-11.352-0.196-20.394-9.559-20.196-20.909s9.559-20.393,20.91-20.196c11.344,0.198,20.383,9.549,20.195,20.893
			c-0.188,11.352-9.541,20.4-20.893,20.214C372.388,547.127,372.383,547.127,372.377,547.126z"/>
		<path fill="#DA262E" d="M378.407,526.239c-0.251,0.51-0.587,0.974-0.994,1.371c-1.101,1.13-2.613,1.765-4.19,1.758l-3.677-0.057
			l0.183-11.135l3.425,0.058c1.574-0.107,3.129,0.387,4.352,1.382c0.661,0.612,1.126,1.407,1.336,2.283l7.994,0.138
			c-0.102-2.672-1.226-5.203-3.14-7.069c-2.182-2.112-5.437-3.026-9.73-3.106l-12.642-0.217h-0.24l-0.468,27.408
			c2.488,2.068,5.471,3.457,8.656,4.031l0.125-7.526l4.66,0.08c3.378,0.108,6.661-1.124,9.136-3.426
			c1.736-1.562,2.936-3.632,3.426-5.915L378.407,526.239z"/>
	</g>
</g>
<g id="Слой_2_3_">
	<g id="Layer_1_4_">
		<path fill="#DA262E" d="M435.017,262.697c0.011-0.281-0.192-0.525-0.472-0.566c-1.939-0.252-3.67-1.349-4.726-2.996
			c-0.166-0.213-0.271-0.468-0.302-0.736c-0.736-2.613,0.493-5.197,0.957-6.088c0.163-0.243,0.098-0.572-0.146-0.734
			c-0.001-0.001-0.001-0.001-0.002-0.001l-3.71-3.556c-0.232-0.201-0.577-0.201-0.81,0c-2.996,2.208-6.802,0.802-6.802,0.802
			c-2.599-1.053-2.871-3.681-3.217-4.703c-0.094-0.251-0.316-0.432-0.582-0.472l-5.152-0.044c-0.281-0.011-0.525,0.192-0.566,0.472
			c-0.343,2.111-1.623,3.955-3.482,5.013c-2.605,1.104-5.152-0.266-6.073-0.736c-0.237-0.132-0.532-0.1-0.736,0.081l-3.681,3.637
			c-0.204,0.216-0.226,0.547-0.051,0.787c1.282,1.857,1.537,4.237,0.677,6.323c-1.303,2.547-4.181,3.379-5.152,3.681
			c-0.251,0.108-0.421,0.347-0.442,0.618l0.118,5.153c-0.011,0.281,0.192,0.525,0.472,0.566c2.064,0.336,3.876,1.563,4.954,3.357
			l0.19,0.456c0.736,2.613-0.492,5.197-0.956,6.088c-0.163,0.243-0.098,0.572,0.146,0.735c0,0,0.001,0,0.001,0.001l3.681,3.592
			c0.217,0.204,0.547,0.227,0.788,0.052c1.56-1.227,3.609-1.637,5.521-1.104c0.163,0.04,0.32,0.104,0.464,0.191
			c2.422,1.362,3.681,4.292,3.916,5.256c0.099,0.24,0.317,0.411,0.574,0.449l5.153-0.118c0.281,0.011,0.525-0.192,0.566-0.471
			c0.381-2.148,1.742-3.997,3.681-4.998l0.324-0.141c2.649-0.816,5.329,0.435,6.286,0.876c0.243,0.163,0.572,0.098,0.735-0.146
			c0.001,0,0.001-0.001,0.001-0.001l3.57-3.739c0.204-0.217,0.226-0.548,0.051-0.788c-1.202-1.766-1.57-3.969-1.008-6.029
			c0.041-0.231,0.131-0.453,0.265-0.647c1.077-1.725,2.735-3.009,4.675-3.622c0.24-0.099,0.411-0.316,0.449-0.574L435.017,262.697z
			 M412.631,279.194c-7.316-0.127-13.145-6.162-13.018-13.479s6.161-13.146,13.478-13.019c7.313,0.128,13.14,6.155,13.019,13.468
			c-0.121,7.316-6.15,13.15-13.467,13.029C412.639,279.194,412.635,279.194,412.631,279.194z"/>
		<path fill="#DA262E" d="M416.518,265.73c-0.162,0.328-0.378,0.627-0.641,0.884c-0.709,0.729-1.685,1.138-2.701,1.133l-2.37-0.036
			l0.117-7.178l2.208,0.037c1.015-0.069,2.017,0.249,2.806,0.891c0.426,0.395,0.726,0.907,0.861,1.472l5.152,0.089
			c-0.065-1.723-0.79-3.354-2.024-4.557c-1.406-1.361-3.504-1.951-6.271-2.002l-8.148-0.14h-0.155l-0.302,17.667
			c1.604,1.333,3.527,2.229,5.58,2.598l0.081-4.851l3.003,0.052c2.178,0.069,4.294-0.725,5.89-2.209
			c1.119-1.007,1.892-2.341,2.208-3.813L416.518,265.73z"/>
	</g>
</g>
</svg>
