<?xml version="1.0" encoding="utf-8"?>
<!-- Generator: Adobe Illustrator 16.0.0, SVG Export Plug-In . SVG Version: 6.00 Build 0)  -->
<!DOCTYPE svg PUBLIC "-//W3C//DTD SVG 1.1//EN" "http://www.w3.org/Graphics/SVG/1.1/DTD/svg11.dtd">
<svg version="1.1" id="Layer_1" xmlns="http://www.w3.org/2000/svg" xmlns:xlink="http://www.w3.org/1999/xlink" x="0px" y="0px"
	 width="595.281px" height="841.891px" viewBox="0 0 595.281 841.891" enable-background="new 0 0 595.281 841.891"
	 xml:space="preserve">
<g>
	
		<rect x="297.64" y="353.736" fill="none" stroke="#78787B" stroke-width="8" stroke-miterlimit="10" width="19.203" height="19.202"/>
	
		<rect x="163.222" y="353.736" fill="none" stroke="#78787B" stroke-width="8" stroke-miterlimit="10" width="19.203" height="19.202"/>
	<path fill="none" stroke="#78787B" stroke-width="8" stroke-miterlimit="10" d="M316.843,401.743H297.64
		c0,31.771-25.837,57.607-57.608,57.607c-31.771,0-57.607-25.837-57.607-57.607h-19.203c0,42.352,34.459,76.811,76.81,76.811
		C282.384,478.553,316.843,444.094,316.843,401.743z"/>
	<path fill="none" stroke="#78787B" stroke-width="8" stroke-miterlimit="10" d="M345.646,545.762
		c0-10.591,8.613-19.203,19.203-19.203v115.244c-7.01,0.27-13.566,2.257-19.203,5.54V545.762z M126.958,598.511l15.497-46.479
		l33.422-5.146l47.238,141.725l-55.735-30.964l19.462-29.188L126.958,598.511z M326.445,643.667l-5.627-8.449l5.627-3.37V643.667z
		 M326.445,609.457l-32.78,19.664l19.01,28.516L256.94,688.6l47.239-141.725l22.266,3.428V609.457z M240.032,678.615
		l-33.931-101.793c9.131,4.445,20.316,7.346,33.931,7.346s24.8-2.9,33.931-7.336L240.032,678.615z M288.039,534.595l-0.567,1.69
		c-2.852,7.307-14.046,28.679-47.44,28.679c-33.413,0-44.569-21.305-47.44-28.66l-0.566-1.709v-7.45
		c14.93,5.741,31.08,9.016,48.006,9.016c16.927,0,33.077-3.274,48.007-9.016V534.595z M326.445,671.962v8.219
		c-0.01,6.864,1.881,13.403,5.26,19.202h-54.621L326.445,671.962z M374.046,409.702c0.154-2.65,0.404-5.271,0.404-7.959v-46.24
		c11.146,3.975,19.203,14.536,19.203,27.037C393.654,395.184,385.406,405.843,374.046,409.702z M192.026,142.508h86.412v28.804
		h9.602c58.232,0,105.615,47.383,105.615,105.614v67.459c-5.607-4.244-12.07-7.422-19.203-8.872v-29.783H105.614v29.773
		c-7.134,1.46-13.595,4.628-19.203,8.872v-96.253C86.412,189.89,133.794,142.508,192.026,142.508z M86.412,382.54
		c0-12.501,8.056-23.063,19.203-27.037v46.24c0,2.688,0.25,5.309,0.403,7.959C94.659,405.843,86.412,395.184,86.412,382.54z
		 M124.817,401.743v-76.811h230.431v76.811c0,63.531-51.684,115.216-115.215,115.216S124.817,465.274,124.817,401.743z
		 M46.528,623.024c10.677-34.181,39.625-59.97,74.458-67.315l-17.503,52.52l55.332,27.661l-18.943,28.42l63.109,35.073h-86.488
		l8.248-66.019l-19.049-2.381l-8.555,68.399H19.779L46.528,623.024z M570.806,693.391c-3.658,3.86-8.611,5.991-13.932,5.991H403.253
		h-38.404c-5.318,0-10.273-2.131-13.932-5.991c-3.658-3.859-5.52-8.919-5.242-14.258c0.527-10.014,9.861-18.156,20.807-18.156h17.57
		v-96.013h153.621v96.013h17.57c10.945,0,20.277,8.143,20.805,18.156C576.328,684.472,574.474,689.542,570.806,693.391z
		 M576.078,647.353c-5.637-3.283-12.193-5.271-19.203-5.54V526.559c10.592,0,19.203,8.612,19.203,19.203V647.353z"/>
	
		<rect x="403.253" y="584.168" fill="none" stroke="#DA262E" stroke-width="8" stroke-miterlimit="10" width="115.217" height="19.202"/>
	
		<rect x="403.253" y="622.572" fill="none" stroke="#DA262E" stroke-width="8" stroke-miterlimit="10" width="115.217" height="19.203"/>
	
		<rect x="499.267" y="660.977" fill="none" stroke="#DA262E" stroke-width="8" stroke-miterlimit="10" width="19.203" height="19.203"/>
	
		<rect x="403.253" y="660.977" fill="none" stroke="#DA262E" stroke-width="8" stroke-miterlimit="10" width="76.811" height="19.203"/>
</g>
<g id="Слой_2">
	<g id="Layer_1_1_">
		<path fill="#DA262E" d="M85.73,629.996c0.007-0.189-0.129-0.354-0.316-0.381c-1.305-0.169-2.468-0.907-3.178-2.015
			c-0.112-0.144-0.183-0.314-0.203-0.495c-0.495-1.757,0.332-3.494,0.644-4.093c0.109-0.164,0.065-0.386-0.099-0.495l0,0
			l-2.495-2.391c-0.156-0.136-0.388-0.136-0.545,0c-2.014,1.484-4.573,0.539-4.573,0.539c-1.747-0.708-1.93-2.475-2.163-3.163
			c-0.063-0.169-0.212-0.29-0.391-0.316l-3.465-0.029c-0.189-0.008-0.354,0.129-0.381,0.316c-0.23,1.42-1.091,2.659-2.342,3.371
			c-1.752,0.742-3.464-0.179-4.083-0.495c-0.16-0.089-0.358-0.067-0.495,0.054l-2.475,2.445c-0.138,0.146-0.152,0.368-0.035,0.53
			c0.862,1.248,1.034,2.849,0.456,4.251c-0.876,1.713-2.812,2.272-3.465,2.476c-0.169,0.072-0.283,0.232-0.297,0.415l0.079,3.465
			c-0.007,0.189,0.129,0.354,0.316,0.382c1.389,0.226,2.606,1.051,3.331,2.257l0.129,0.307c0.495,1.757-0.332,3.494-0.644,4.094
			c-0.109,0.163-0.065,0.385,0.099,0.494c0,0,0,0,0,0.001l2.476,2.415c0.145,0.138,0.367,0.152,0.529,0.034
			c1.049-0.824,2.427-1.1,3.712-0.742c0.11,0.027,0.215,0.07,0.313,0.129c1.628,0.916,2.475,2.886,2.633,3.534
			c0.066,0.161,0.213,0.276,0.387,0.302l3.464-0.079c0.189,0.007,0.354-0.13,0.382-0.317c0.256-1.444,1.171-2.687,2.475-3.36
			l0.218-0.094c1.781-0.55,3.584,0.292,4.227,0.589c0.164,0.109,0.385,0.065,0.494-0.099c0.001,0,0.001,0,0.001-0.001l2.4-2.514
			c0.138-0.146,0.152-0.368,0.035-0.53c-0.809-1.187-1.057-2.668-0.678-4.054c0.027-0.156,0.088-0.305,0.178-0.436
			c0.725-1.159,1.839-2.023,3.143-2.435c0.162-0.066,0.276-0.214,0.303-0.387L85.73,629.996z M70.678,641.088
			c-4.92-0.085-8.839-4.143-8.753-9.063c0.085-4.92,4.143-8.839,9.063-8.753c4.917,0.085,8.834,4.138,8.753,9.055
			c-0.081,4.92-4.135,8.843-9.055,8.762C70.683,641.089,70.681,641.089,70.678,641.088z"/>
		<path fill="#DA262E" d="M73.292,632.035c-0.108,0.222-0.254,0.422-0.431,0.595c-0.477,0.489-1.133,0.765-1.816,0.762l-1.594-0.024
			l0.079-4.826l1.485,0.024c0.682-0.046,1.355,0.168,1.886,0.6c0.286,0.266,0.487,0.609,0.579,0.989l3.465,0.06
			c-0.044-1.158-0.531-2.255-1.361-3.063c-0.945-0.916-2.356-1.312-4.217-1.347l-5.479-0.094h-0.104l-0.202,11.879
			c1.078,0.896,2.371,1.499,3.751,1.747l0.055-3.262l2.02,0.035c1.464,0.047,2.888-0.487,3.96-1.485
			c0.753-0.677,1.272-1.574,1.485-2.563L73.292,632.035z"/>
	</g>
</g>
</svg>
