<?xml version="1.0" encoding="utf-8"?>
<!-- Generator: Adobe Illustrator 16.0.0, SVG Export Plug-In . SVG Version: 6.00 Build 0)  -->
<!DOCTYPE svg PUBLIC "-//W3C//DTD SVG 1.1//EN" "http://www.w3.org/Graphics/SVG/1.1/DTD/svg11.dtd">
<svg version="1.1" id="Layer_1" xmlns="http://www.w3.org/2000/svg" xmlns:xlink="http://www.w3.org/1999/xlink" x="0px" y="0px"
	 width="595.281px" height="841.891px" viewBox="0 0 595.281 841.891" enable-background="new 0 0 595.281 841.891"
	 xml:space="preserve">
<g>
	
		<rect x="76.811" y="353.736" fill="none" stroke="#78787B" stroke-width="8" stroke-miterlimit="10" width="201.627" height="19.202"/>
	<path fill="none" stroke="#78787B" stroke-width="8" stroke-miterlimit="10" d="M278.438,430.547
		c26.47,0,48.007,21.536,48.007,48.007s-21.537,48.006-48.007,48.006c-26.471,0-48.006-21.535-48.006-48.006
		S251.967,430.547,278.438,430.547z M325.378,430.547c-3.533-3.456-7.471-6.49-11.695-9.112l33.201-59.758
		c10.658,7.104,23.428,11.262,37.168,11.262c6.672,0,13.115-1.008,19.201-2.832v60.44H325.378z M384.052,353.736
		c-26.471,0-48.008-21.536-48.008-48.007s21.537-48.006,48.008-48.006s48.006,21.535,48.006,48.006S410.523,353.736,384.052,353.736
		z M57.608,142.508h345.646v98.846c-6.086-1.824-12.529-2.833-19.201-2.833c-37.053,0-67.209,30.148-67.209,67.209
		c0,16.227,5.789,31.138,15.4,42.765l-36.255,65.26c-5.607-1.526-11.474-2.41-17.551-2.41c-18.262,0-34.824,7.346-46.941,19.203
		H57.608V142.508z M38.405,259.49v190.259h179.4c-4.167,8.747-6.577,18.482-6.577,28.805c0,37.061,30.158,67.209,67.209,67.209
		c37.052,0,67.208-30.148,67.208-67.209c0-10.322-2.41-20.058-6.576-28.805h83.387v-62.543l24.627,39.404
		c-15.025,12.328-24.627,31.031-24.627,51.943c0,37.061,30.158,67.209,67.209,67.209c37.053,0,67.209-30.148,67.209-67.209
		c0-37.062-30.156-67.21-67.209-67.21c-9.273,0-18.127,1.892-26.172,5.31l-36.859-58.971c15.025-12.338,24.627-31.041,24.627-51.953
		c0-18.799-7.777-35.793-20.27-48.006h116.281c15.881,0,28.805,12.923,28.805,28.804v297.641H19.203V286.527
		C19.203,274.026,27.258,263.465,38.405,259.49z M489.666,430.547c26.471,0,48.008,21.536,48.008,48.007
		s-21.537,48.006-48.008,48.006s-48.006-21.535-48.006-48.006S463.195,430.547,489.666,430.547z M441.66,699.383H153.621v-38.405
		H441.66V699.383z M547.273,641.775H48.006c-15.88,0-28.804-12.924-28.804-28.804v-9.602h556.875v9.602
		C576.078,628.851,563.154,641.775,547.273,641.775z"/>
	
		<rect x="259.226" y="392.141" fill="none" stroke="#78787B" stroke-width="8" stroke-miterlimit="10" width="19.202" height="19.202"/>
	
		<rect x="76.811" y="392.141" fill="none" stroke="#78787B" stroke-width="8" stroke-miterlimit="10" width="163.222" height="19.202"/>
</g>
<g id="Слой_2">
	<g id="Layer_1_1_">
		<path fill="#DA262E" d="M279.636,237.032c0.029-0.767-0.523-1.433-1.283-1.545c-5.289-0.686-10.005-3.676-12.883-8.166
			c-0.453-0.581-0.737-1.275-0.822-2.007c-2.006-7.123,1.345-14.166,2.609-16.594c0.443-0.663,0.265-1.561-0.398-2.004
			c-0.001-0.001-0.002-0.002-0.004-0.003l-10.113-9.691c-0.633-0.549-1.573-0.549-2.207,0c-8.166,6.02-18.54,2.187-18.54,2.187
			c-7.083-2.869-7.825-10.032-8.769-12.821c-0.255-0.685-0.862-1.177-1.585-1.284l-14.046-0.12
			c-0.767-0.029-1.433,0.524-1.545,1.284c-0.932,5.756-4.422,10.781-9.491,13.664c-7.103,3.01-14.045-0.723-16.554-2.007
			c-0.648-0.359-1.453-0.271-2.007,0.221l-10.033,9.913c-0.557,0.589-0.616,1.49-0.14,2.146c3.495,5.063,4.189,11.549,1.846,17.236
			c-3.551,6.942-11.397,9.21-14.045,10.032c-0.683,0.296-1.146,0.944-1.204,1.686l0.321,14.047
			c-0.029,0.767,0.524,1.433,1.284,1.545c5.628,0.915,10.567,4.262,13.504,9.149l0.521,1.244c2.007,7.123-1.344,14.166-2.608,16.594
			c-0.444,0.663-0.266,1.561,0.397,2.005c0.001,0,0.002,0.001,0.004,0.002l10.033,9.792c0.589,0.557,1.491,0.616,2.147,0.141
			c4.25-3.343,9.839-4.461,15.049-3.01c0.445,0.109,0.872,0.285,1.264,0.521c6.602,3.712,10.033,11.698,10.675,14.327
			c0.269,0.655,0.864,1.12,1.565,1.224l14.046-0.321c0.767,0.029,1.433-0.524,1.545-1.284c1.037-5.856,4.748-10.895,10.033-13.624
			l0.883-0.382c7.223-2.227,14.527,1.185,17.135,2.388c0.664,0.444,1.561,0.266,2.004-0.397c0.002-0.001,0.002-0.002,0.003-0.004
			l9.731-10.192c0.557-0.589,0.616-1.491,0.141-2.147c-3.277-4.812-4.282-10.817-2.748-16.434c0.111-0.633,0.357-1.235,0.722-1.766
			c2.937-4.702,7.455-8.202,12.741-9.872c0.656-0.27,1.121-0.864,1.225-1.565L279.636,237.032z M218.618,281.999
			c-19.944-0.346-35.832-16.795-35.485-36.739s16.795-35.831,36.74-35.485c19.932,0.347,35.814,16.776,35.485,36.709
			c-0.329,19.945-16.765,35.846-36.709,35.517C218.638,282,218.628,282,218.618,281.999z"/>
		<path fill="#DA262E" d="M229.212,245.3c-0.441,0.896-1.031,1.71-1.746,2.408c-1.934,1.986-4.592,3.102-7.363,3.09l-6.461-0.101
			l0.321-19.563l6.019,0.1c2.765-0.188,5.496,0.68,7.646,2.429c1.161,1.076,1.978,2.473,2.348,4.013l14.046,0.241
			c-0.179-4.695-2.154-9.142-5.518-12.421c-3.833-3.712-9.552-5.317-17.096-5.458l-22.213-0.381h-0.421l-0.823,48.157
			c4.373,3.635,9.613,6.075,15.209,7.083l0.221-13.224l8.187,0.141c5.936,0.189,11.705-1.975,16.053-6.02
			c3.051-2.744,5.157-6.382,6.02-10.394L229.212,245.3z"/>
	</g>
</g>
</svg>
