<?xml version="1.0" encoding="utf-8"?>
<!-- Generator: Adobe Illustrator 16.0.0, SVG Export Plug-In . SVG Version: 6.00 Build 0)  -->
<!DOCTYPE svg PUBLIC "-//W3C//DTD SVG 1.1//EN" "http://www.w3.org/Graphics/SVG/1.1/DTD/svg11.dtd">
<svg version="1.1" id="Layer_1" xmlns="http://www.w3.org/2000/svg" xmlns:xlink="http://www.w3.org/1999/xlink" x="0px" y="0px"
	 width="595.281px" height="841.891px" viewBox="0 0 595.281 841.891" enable-background="new 0 0 595.281 841.891"
	 xml:space="preserve">
<g>
	<path fill="none" stroke="#78787B" stroke-width="8" stroke-miterlimit="10" d="M316.843,142.508h115.215
		c62.273,0,113.9,45.895,123.186,105.614H193.658C202.942,188.402,254.569,142.508,316.843,142.508z M86.412,344.135H220.83
		c37.052,0,67.209,30.148,67.209,67.209H19.203C19.203,374.283,49.36,344.135,86.412,344.135z M19.203,699.383V430.547h268.836
		v268.836H19.203z M432.058,622.572H316.843c-3.197,0-6.404-0.297-9.602-0.537v-28.267h169.98l6.232,17.657
		C467.275,618.751,450.013,622.572,432.058,622.572z M576.078,574.566h-67.219l37.264,105.614h29.955v19.202h-76.811V680.18h28.814
		l-37.264-105.614H307.242v-19.203h268.836V574.566z M550.73,536.161H307.242v-19.202H555.3
		C554.292,523.477,552.755,529.882,550.73,536.161z M556.875,497.756H307.242v-86.412c0-47.642-38.761-86.411-86.412-86.411h-28.804
		v-57.608h364.849V497.756z"/>
</g>
<g id="Слой_2">
	<g id="Layer_1_1_">
		<path fill="#DA262E" d="M207.214,544.116c0.029-0.767-0.523-1.433-1.283-1.545c-5.289-0.686-10.005-3.676-12.883-8.166
			c-0.453-0.581-0.737-1.275-0.822-2.007c-2.006-7.123,1.345-14.166,2.609-16.594c0.443-0.663,0.265-1.561-0.398-2.004
			c-0.001-0.001-0.002-0.002-0.004-0.003l-10.113-9.691c-0.633-0.549-1.573-0.549-2.207,0c-8.166,6.02-18.54,2.187-18.54,2.187
			c-7.083-2.869-7.825-10.032-8.769-12.821c-0.255-0.685-0.862-1.177-1.585-1.284l-14.046-0.12
			c-0.767-0.029-1.433,0.524-1.545,1.284c-0.932,5.756-4.422,10.781-9.491,13.664c-7.103,3.01-14.045-0.723-16.554-2.007
			c-0.648-0.359-1.453-0.271-2.007,0.221l-10.033,9.913c-0.557,0.589-0.616,1.49-0.14,2.146c3.495,5.063,4.189,11.549,1.846,17.236
			c-3.551,6.942-11.397,9.21-14.045,10.032c-0.683,0.296-1.146,0.944-1.204,1.686l0.321,14.047
			c-0.029,0.767,0.524,1.433,1.284,1.545c5.628,0.915,10.567,4.262,13.504,9.149l0.521,1.244c2.007,7.123-1.344,14.166-2.608,16.594
			c-0.444,0.663-0.266,1.561,0.397,2.005c0.001,0,0.002,0.001,0.004,0.002l10.033,9.792c0.589,0.557,1.491,0.616,2.147,0.141
			c4.25-3.343,9.839-4.461,15.049-3.01c0.445,0.109,0.872,0.285,1.264,0.521c6.602,3.712,10.033,11.698,10.675,14.327
			c0.269,0.655,0.864,1.12,1.565,1.224l14.046-0.321c0.767,0.029,1.433-0.524,1.545-1.284c1.037-5.856,4.748-10.895,10.033-13.624
			l0.883-0.382c7.223-2.227,14.527,1.185,17.135,2.388c0.664,0.444,1.561,0.266,2.004-0.397c0.002-0.001,0.002-0.002,0.003-0.004
			l9.731-10.192c0.557-0.589,0.616-1.491,0.141-2.147c-3.277-4.812-4.282-10.817-2.748-16.434c0.111-0.633,0.357-1.235,0.722-1.766
			c2.937-4.702,7.455-8.202,12.741-9.872c0.656-0.27,1.121-0.864,1.225-1.565L207.214,544.116z M146.196,589.083
			c-19.944-0.346-35.832-16.795-35.485-36.739s16.795-35.831,36.74-35.485c19.932,0.347,35.814,16.776,35.485,36.709
			c-0.329,19.945-16.765,35.846-36.709,35.517C146.216,589.084,146.207,589.084,146.196,589.083z"/>
		<path fill="#DA262E" d="M156.791,552.384c-0.441,0.896-1.031,1.71-1.746,2.408c-1.934,1.986-4.592,3.102-7.363,3.09l-6.461-0.101
			l0.321-19.563l6.019,0.1c2.765-0.188,5.496,0.68,7.646,2.429c1.161,1.076,1.978,2.473,2.348,4.013L171.599,545
			c-0.179-4.695-2.154-9.142-5.518-12.421c-3.833-3.712-9.552-5.317-17.096-5.458l-22.213-0.381h-0.421l-0.823,48.157
			c4.373,3.635,9.613,6.075,15.209,7.083l0.221-13.224l8.187,0.141c5.936,0.189,11.705-1.975,16.053-6.02
			c3.051-2.744,5.157-6.382,6.02-10.394L156.791,552.384z"/>
	</g>
</g>
<g id="Слой_2_1_">
	<g id="Layer_1_2_">
		<path fill="#DA262E" d="M437.883,369.174c0.024-0.634-0.433-1.185-1.062-1.278c-4.374-0.567-8.273-3.04-10.654-6.753
			c-0.374-0.48-0.609-1.055-0.68-1.66c-1.659-5.891,1.112-11.716,2.158-13.724c0.366-0.548,0.219-1.291-0.33-1.657
			c0-0.001-0.001-0.001-0.003-0.002l-8.364-8.015c-0.523-0.454-1.301-0.454-1.825,0c-6.753,4.979-15.333,1.808-15.333,1.808
			c-5.857-2.373-6.472-8.297-7.252-10.604c-0.211-0.566-0.713-0.973-1.311-1.062l-11.616-0.099
			c-0.635-0.024-1.186,0.434-1.278,1.062c-0.771,4.76-3.656,8.917-7.849,11.3c-5.874,2.489-11.617-0.598-13.69-1.66
			c-0.537-0.297-1.202-0.224-1.66,0.183l-8.297,8.199c-0.46,0.487-0.51,1.232-0.116,1.775c2.89,4.187,3.465,9.551,1.526,14.255
			c-2.937,5.742-9.425,7.617-11.615,8.297c-0.565,0.245-0.948,0.781-0.997,1.394l0.267,11.617c-0.024,0.634,0.433,1.185,1.062,1.278
			c4.655,0.757,8.74,3.524,11.168,7.567l0.431,1.029c1.661,5.891-1.111,11.716-2.156,13.724c-0.367,0.548-0.22,1.291,0.328,1.658
			c0.002,0,0.003,0,0.003,0.001l8.298,8.098c0.487,0.46,1.232,0.51,1.775,0.116c3.516-2.764,8.138-3.689,12.446-2.489
			c0.368,0.09,0.721,0.236,1.046,0.431c5.459,3.07,8.297,9.674,8.828,11.849c0.223,0.542,0.714,0.926,1.295,1.012l11.616-0.266
			c0.634,0.024,1.185-0.434,1.277-1.063c0.857-4.843,3.927-9.01,8.298-11.267l0.73-0.316c5.973-1.841,12.015,0.98,14.171,1.975
			c0.549,0.368,1.29,0.22,1.657-0.329c0.001,0,0.001-0.001,0.002-0.003l8.049-8.43c0.46-0.487,0.509-1.233,0.116-1.776
			c-2.711-3.979-3.542-8.946-2.273-13.591c0.093-0.523,0.296-1.022,0.598-1.46c2.428-3.889,6.165-6.784,10.537-8.165
			c0.543-0.223,0.927-0.715,1.013-1.294L437.883,369.174z M387.42,406.362c-16.495-0.286-29.635-13.89-29.349-30.384
			c0.287-16.495,13.89-29.633,30.386-29.347c16.483,0.287,29.619,13.875,29.347,30.359c-0.271,16.495-13.864,29.646-30.359,29.373
			C387.436,406.363,387.428,406.363,387.42,406.362z"/>
		<path fill="#DA262E" d="M396.181,376.011c-0.364,0.741-0.853,1.414-1.443,1.992c-1.6,1.643-3.798,2.565-6.09,2.555l-5.344-0.083
			l0.266-16.18l4.978,0.083c2.287-0.155,4.546,0.562,6.323,2.009c0.96,0.89,1.636,2.045,1.941,3.318l11.616,0.2
			c-0.147-3.883-1.781-7.561-4.563-10.272c-3.17-3.07-7.899-4.398-14.139-4.514l-18.371-0.315h-0.349l-0.68,39.828
			c3.616,3.006,7.95,5.024,12.578,5.857l0.183-10.936l6.771,0.116c4.909,0.157,9.681-1.633,13.276-4.978
			c2.523-2.27,4.266-5.278,4.979-8.596L396.181,376.011z"/>
	</g>
</g>
</svg>
